# xmcd CD database file
#
# Track frame offsets:
#	183
#	14170
#	25320
#	41920
#	50370
#	66045
#	80905
#	93920
#	107458
#	122095
#	136308
#	153565
#	167570
#	179465
#	192983
#	203158
#	217195
#	231145
#
# Disc length: 3278 seconds
#
# Revision: 2
# Processed by: cddbd v1.5.2PL0 Copyright (c) Steve Scherf et al.
# Submitted via: CDex 1.70beta2
#
DISCID=040ccc12
DTITLE=Country - Country Stars 3 - Live at Church Street Station
DYEAR=1991
DGENRE=Country
TTITLE0=Kathy Mattea - Ball and chain
TTITLE1=Kathy Mattea - Street talk
TTITLE2=Kathy Mattea - Someone is falling in love
TTITLE3=Kathy Mattea - Put yourself in my place
TTITLE4=Kathy Mattea - Heart of the country
TTITLE5=Sweethearts of the Rodeo - Chains of gold
TTITLE6=Sweethearts of the Rodeo - Hey doll baby
TTITLE7=Lorrie Morgan - Stuck on you
TTITLE8=Lorrie Morgan - Please Mr. Please
TTITLE9=Lorrie Morgan - Love is fair
TTITLE10=Lorrie Morgan - You're gettin' to me again
TTITLE11=Patty Loveless - It's what you don't do
TTITLE12=Patty Loveless - Lonely days, lonely nights
TTITLE13=Forester Sisters - Dixie man
TTITLE14=Forester Sisters - Just in case
TTITLE15=Forester Sisters - I fell in love again last night
TTITLE16=Denice Price - 'till I fall in love again
TTITLE17=Denice Price - I'm not afraid anymore
EXTD=YEAR: 1991
EXTT0=
EXTT1=
EXTT2=
EXTT3=
EXTT4=
EXTT5=
EXTT6=
EXTT7=
EXTT8=
EXTT9=
EXTT10=
EXTT11=
EXTT12=
EXTT13=
EXTT14=
EXTT15=
EXTT16=
EXTT17=
PLAYORDER=
